# This file uses centimeters as units for non-parametric coordinates.

mtllib Bracket.mtl
g default
v 0.645972 3.631908 0.677671
v 1.925076 3.631908 0.677671
v 0.645972 4.014991 0.677671
v 1.925076 4.014991 0.677671
v 0.645972 4.014991 0.355465
v 1.925076 4.014991 0.355465
v 0.645972 3.631908 0.355465
v 1.925076 3.631908 0.355465
v 1.285524 3.631908 0.677671
v 1.285524 3.631908 0.355465
v 0.965749 3.631908 0.677671
v 0.965749 3.631908 0.355465
v 0.965749 4.014991 0.355465
v 0.965749 4.014991 0.677671
v 1.605300 3.631908 0.677671
v 1.605300 4.014991 0.677671
v 1.605300 4.014991 0.355465
v 1.605300 3.631908 0.355465
v 1.285524 3.684495 0.741118
v 1.605300 3.684495 0.741118
v 1.285524 3.684495 0.292017
v 1.605300 3.684495 0.292017
v 0.965749 3.684495 0.292017
v 0.965749 3.684495 0.741118
v 1.285524 3.999274 0.741118
v 1.285524 4.080509 0.686510
v 1.605300 4.080509 0.686510
v 1.605300 3.999274 0.741118
v 1.605300 4.047753 0.709398
v 1.285524 4.080509 0.346626
v 1.285524 3.999274 0.292017
v 1.605300 3.999274 0.292017
v 1.605300 4.080509 0.346626
v 1.605300 4.047753 0.323738
v 0.965749 4.080509 0.346626
v 0.965749 3.999274 0.292017
v 0.965749 4.047753 0.323738
v 0.965749 3.999274 0.741118
v 0.965749 4.080509 0.686510
v 0.965749 4.047753 0.709398
v 1.605300 4.014991 0.516568
v 1.925076 4.014991 0.516568
v 1.925076 3.631908 0.516568
v 0.645972 3.631908 0.516568
v 0.645972 4.014991 0.516568
v 0.965749 4.014991 0.516568
v 1.605300 3.441436 0.516556
v 1.285524 3.441436 0.516556
v 1.285524 3.441299 0.355465
v 1.605300 3.441299 0.355465
v 0.965749 3.441436 0.516556
v 0.965749 3.441299 0.355465
v 0.645972 3.441299 0.355465
v 0.645972 3.441436 0.516556
v 1.925076 3.441436 0.516556
v 1.925076 3.441299 0.355465
v 1.605300 3.574821 0.677683
v 1.925076 3.574821 0.677683
v 1.285524 3.574821 0.677683
v 0.965749 3.574821 0.677683
v 0.645972 3.574821 0.677683
vt 0.375000 0.000000
vt 0.625000 0.000000
vt 0.375000 0.250000
vt 0.625000 0.250000
vt 0.375000 0.500000
vt 0.625000 0.500000
vt 0.375000 0.750000
vt 0.625000 0.750000
vt 0.375000 1.000000
vt 0.625000 1.000000
vt 0.875000 0.000000
vt 0.875000 0.250000
vt 0.125000 0.000000
vt 0.125000 0.250000
vt 0.500000 0.000000
vt 0.500000 1.000000
vt 0.500000 0.750000
vt 0.437500 1.000000
vt 0.437500 0.750000
vt 0.562500 0.000000
vt 0.562500 1.000000
vt 0.437500 0.750000
vt 0.562500 0.250000
vt 0.562500 0.250000
vt 0.562500 0.750000
vt 0.562500 0.750000
vt 0.562500 0.500000
vt 0.562500 0.500000
vt 0.437500 0.500000
vt 0.437500 0.500000
vt 0.437500 0.000000
vt 0.437500 0.000000
vt 0.437500 0.250000
vt 0.437500 0.250000
vt 0.437500 0.280399
vt 0.437500 0.198717
vt 0.562500 0.198717
vt 0.562500 0.280399
vt 0.437500 0.551283
vt 0.437500 0.469601
vt 0.562500 0.469601
vt 0.562500 0.551283
vt 0.500000 0.198717
vt 0.562500 0.000000
vt 0.500000 0.469601
vt 0.500000 0.750000
vt 0.500000 0.551283
vt 0.500000 0.280399
vt 0.500000 0.000000
vt 0.562500 0.375000
vt 0.625000 0.375000
vt 0.750000 0.250000
vt 0.625000 0.875000
vt 0.750000 0.000000
vt 0.562500 0.875000
vt 0.500000 0.875000
vt 0.437500 0.875000
vt 0.250000 0.000000
vt 0.375000 0.875000
vt 0.250000 0.250000
vt 0.375000 0.375000
vt 0.437500 0.375000
vt 0.500000 0.750000
vt 0.562500 0.750000
vt 0.437500 0.750000
vt 0.375000 0.750000
vt 0.375000 0.875000
vt 0.625000 0.750000
vt 0.625000 0.875000
vt 0.625000 1.000000
vt 0.562500 1.000000
vt 0.500000 1.000000
vt 0.437500 1.000000
vt 0.375000 1.000000
vn 0.000000 -0.923823 0.382819
vn 0.000000 -0.923823 0.382819
vn 0.000000 -1.000000 0.000852
vn 0.000000 -1.000000 0.000852
vn 1.000000 0.000000 0.000000
vn 1.000000 0.000000 0.000000
vn 1.000000 0.000000 0.000000
vn 1.000000 0.000000 0.000000
vn -1.000000 0.000000 0.000000
vn -1.000000 0.000000 0.000000
vn -1.000000 0.000000 0.000000
vn -1.000000 0.000000 0.000000
vn 0.000000 -0.923823 0.382819
vn 0.000000 -0.923823 0.382819
vn 0.000000 -1.000000 0.000852
vn 0.000000 -1.000000 0.000852
vn 0.000000 -1.000000 0.000852
vn 0.000000 -1.000000 0.000852
vn 0.000000 -0.923823 0.382819
vn 0.000000 -0.923823 0.382819
vn 0.000000 0.000000 -1.000000
vn 0.000000 0.000000 -1.000000
vn 0.000000 0.000000 -1.000000
vn 0.000000 0.000000 -1.000000
vn 0.000000 1.000000 0.000000
vn 0.000000 1.000000 0.000000
vn 0.000000 1.000000 0.000000
vn 0.000000 1.000000 0.000000
vn 0.000000 0.000000 1.000000
vn 0.000000 0.000000 1.000000
vn 0.000000 0.000000 1.000000
vn 0.000000 0.000000 1.000000
vn 0.000000 0.000000 1.000000
vn 0.000000 0.000000 1.000000
vn 0.000000 0.000000 1.000000
vn 0.000000 0.000000 1.000000
vn 0.000000 1.000000 0.000000
vn 0.000000 1.000000 0.000000
vn 0.000000 1.000000 0.000000
vn 0.000000 1.000000 0.000000
vn 0.000000 0.000000 -1.000000
vn 0.000000 0.000000 -1.000000
vn 0.000000 0.000000 -1.000000
vn 0.000000 0.000000 -1.000000
vn 0.000000 -0.923823 0.382819
vn 0.000000 -0.923823 0.382819
vn 0.000000 -1.000000 0.000852
vn 0.000000 -1.000000 0.000852
vn 0.000000 -0.769921 0.638139
vn 0.000000 -0.769921 0.638139
vn 0.000000 -0.769921 0.638139
vn 0.000000 -0.769921 0.638139
vn 1.000000 0.000000 0.000000
vn 1.000000 0.000000 0.000000
vn 1.000000 0.000000 0.000000
vn 1.000000 0.000000 0.000000
vn 1.000000 0.000000 0.000000
vn 1.000000 0.000000 0.000000
vn 1.000000 0.000000 0.000000
vn 1.000000 0.000000 0.000000
vn 1.000000 0.000000 0.000000
vn 1.000000 0.000000 0.000000
vn 1.000000 0.000000 0.000000
vn 1.000000 0.000000 0.000000
vn 1.000000 0.000000 0.000000
vn 1.000000 0.000000 0.000000
vn 1.000000 0.000000 0.000000
vn 1.000000 0.000000 0.000000
vn 1.000000 0.000000 0.000000
vn 0.000000 -0.769921 -0.638139
vn 0.000000 -0.769921 -0.638139
vn 0.000000 -0.769921 -0.638139
vn 0.000000 -0.769921 -0.638139
vn -1.000000 0.000000 0.000000
vn -1.000000 0.000000 0.000000
vn -1.000000 0.000000 0.000000
vn -1.000000 0.000000 0.000000
vn -1.000000 0.000000 0.000000
vn 0.000000 -0.769921 -0.638139
vn 0.000000 -0.769921 -0.638139
vn 0.000000 -0.769921 -0.638139
vn 0.000000 -0.769921 -0.638139
vn -1.000000 -0.000000 0.000000
vn -1.000000 -0.000000 0.000000
vn -1.000000 -0.000000 0.000000
vn -1.000000 -0.000000 0.000000
vn -1.000000 -0.000000 0.000000
vn -1.000000 -0.000000 0.000000
vn -1.000000 -0.000000 0.000000
vn -1.000000 0.000000 0.000000
vn -1.000000 0.000000 0.000000
vn -1.000000 0.000000 0.000000
vn -1.000000 0.000000 0.000000
vn -1.000000 0.000000 0.000000
vn 0.000000 -0.769921 0.638139
vn 0.000000 -0.769921 0.638139
vn 0.000000 -0.769921 0.638139
vn 0.000000 -0.769921 0.638139
vn 0.000000 0.557893 0.829913
vn 0.000000 0.557893 0.829913
vn 0.000000 0.557893 0.829913
vn 0.000000 0.557893 0.829913
vn 0.000000 0.557893 0.829913
vn 0.000000 0.557893 0.829913
vn 0.000000 0.557893 0.829913
vn 0.000000 0.557893 0.829913
vn 0.000000 0.557893 -0.829913
vn 0.000000 0.557893 -0.829913
vn 0.000000 0.557893 -0.829913
vn 0.000000 0.557893 -0.829913
vn 0.000000 0.557893 -0.829913
vn 0.000000 0.557893 -0.829913
vn 0.000000 0.557893 -0.829913
vn 0.000000 0.557893 -0.829913
vn 0.000000 0.000000 1.000000
vn 0.000000 0.000000 1.000000
vn 0.000000 0.000000 1.000000
vn 0.000000 0.000000 1.000000
vn 0.000000 1.000000 0.000000
vn 0.000000 1.000000 0.000000
vn 0.000000 1.000000 0.000000
vn 0.000000 1.000000 0.000000
vn 0.000000 0.000000 -1.000000
vn 0.000000 0.000000 -1.000000
vn 0.000000 0.000000 -1.000000
vn 0.000000 0.000000 -1.000000
vn 0.000000 0.000000 -1.000000
vn 0.000000 0.000000 -1.000000
vn 0.000000 0.000000 -1.000000
vn 0.000000 0.000000 -1.000000
vn 0.000000 1.000000 0.000000
vn 0.000000 1.000000 0.000000
vn 0.000000 1.000000 0.000000
vn 0.000000 1.000000 0.000000
vn 0.000000 0.000000 1.000000
vn 0.000000 0.000000 1.000000
vn 0.000000 0.000000 1.000000
vn 0.000000 0.000000 1.000000
vn -1.000000 0.000000 0.000000
vn -1.000000 0.000000 0.000000
vn -1.000000 0.000000 0.000000
vn -1.000000 0.000000 0.000000
vn -1.000000 0.000000 0.000000
vn -1.000000 0.000000 0.000000
vn 1.000000 0.000000 0.000000
vn 1.000000 0.000000 0.000000
vn 1.000000 0.000000 0.000000
vn 1.000000 0.000000 0.000000
vn 1.000000 0.000000 0.000000
vn 1.000000 0.000000 0.000000
vn 0.000000 1.000000 0.000000
vn 0.000000 1.000000 0.000000
vn 1.000000 0.000000 0.000000
vn 1.000000 0.000000 0.000000
vn 0.000000 -0.770304 0.637677
vn 0.000000 -0.770304 0.637677
vn 0.000000 -0.770304 0.637677
vn 0.000000 -0.770304 0.637677
vn 0.000000 -0.770304 0.637677
vn 0.000000 -0.770304 0.637677
vn 0.000000 -0.770304 0.637677
vn 0.000000 -0.770304 0.637677
vn -1.000000 0.000000 0.000000
vn -1.000000 0.000000 0.000000
vn 0.000000 1.000000 0.000000
vn 0.000000 1.000000 0.000000
vn 0.000000 0.000000 -1.000000
vn 0.000000 0.000000 -1.000000
vn 0.000000 0.000000 -1.000000
vn 0.000000 0.000000 -1.000000
vn 0.000000 0.000000 -1.000000
vn 0.000000 0.000000 -1.000000
vn 0.000000 0.000000 -1.000000
vn 0.000000 0.000000 -1.000000
vn 0.000000 0.000000 -1.000000
vn 0.000000 0.000000 -1.000000
vn 0.000000 0.000000 -1.000000
vn 0.000000 0.000000 -1.000000
vn -1.000000 0.000000 0.000000
vn -1.000000 0.000000 0.000000
vn -1.000000 0.000000 0.000000
vn -1.000000 0.000000 0.000000
vn 0.000000 0.000000 -1.000000
vn 0.000000 0.000000 -1.000000
vn 0.000000 0.000000 -1.000000
vn 0.000000 0.000000 -1.000000
vn 1.000000 0.000000 0.000000
vn 1.000000 0.000000 0.000000
vn 1.000000 0.000000 0.000000
vn 1.000000 0.000000 0.000000
vn 1.000000 -0.000000 0.000000
vn 1.000000 -0.000000 0.000000
vn 1.000000 -0.000000 0.000000
vn 1.000000 -0.000000 0.000000
vn 0.000000 0.000215 1.000000
vn 0.000000 0.000215 1.000000
vn 0.000000 0.000215 1.000000
vn 0.000000 0.000215 1.000000
vn 0.000000 0.000215 1.000000
vn 0.000000 0.000215 1.000000
vn 0.000000 0.000215 1.000000
vn 0.000000 0.000215 1.000000
vn 0.000000 0.000215 1.000000
vn 0.000000 0.000215 1.000000
vn 0.000000 0.000215 1.000000
vn 0.000000 0.000215 1.000000
vn 0.000000 0.000215 1.000000
vn 0.000000 0.000215 1.000000
vn 0.000000 0.000215 1.000000
vn 0.000000 0.000215 1.000000
vn -1.000000 0.000000 0.000000
vn -1.000000 0.000000 0.000000
vn -1.000000 0.000000 0.000000
vn -1.000000 0.000000 0.000000
s 1
g pCube3
usemtl initialShadingGroup
f 47/55/1 48/56/2 49/63/3 50/64/4
s 2
f 42/52/5 43/54/6 8/11/7 6/12/8
s 3
f 7/13/9 44/58/10 45/60/11 5/14/12
s 4
f 48/56/13 51/57/14 52/65/15 49/63/16
s 5
f 53/66/17 52/65/18 51/57/19 54/67/20
s off
f 5/5/21 13/29/22 12/19/23 7/7/24
s 6
f 45/61/25 46/62/26 13/29/27 5/5/28
s off
f 1/1/29 11/31/30 14/33/31 3/3/32
f 16/23/33 15/20/34 2/2/35 4/4/36
s 7
f 17/27/37 41/50/38 42/51/39 6/6/40
s off
f 18/25/41 17/27/42 6/6/43 8/8/44
s 8
f 55/69/45 47/55/46 50/64/47 56/68/48
s off
f 9/15/49 15/20/50 20/44/51 19/49/52
f 15/20/53 16/23/54 29/24/55 28/37/56 20/44/57
f 16/23/58 41/50/59 17/27/60 34/28/61 33/41/62 27/38/63 29/24/64
f 17/27/65 18/25/66 22/26/67 32/42/68 34/28/69
f 18/25/70 10/17/71 21/46/72 22/26/73
f 12/19/74 13/29/75 37/30/76 36/39/77 23/22/78
f 10/17/79 12/19/80 23/22/81 21/46/82
f 13/29/83 46/62/84 14/33/85 40/34/86 39/35/87 35/40/88 37/30/89
f 14/33/90 11/31/91 24/32/92 38/36/93 40/34/94
f 11/31/95 9/15/96 19/49/97 24/32/98
f 25/43/99 26/48/100 39/35/101 38/36/102
f 26/48/103 25/43/104 28/37/105 27/38/106
f 30/45/107 31/47/108 36/39/109 35/40/110
f 31/47/111 30/45/112 33/41/113 32/42/114
f 25/43/115 19/49/116 20/44/117 28/37/118
f 30/45/119 26/48/120 27/38/121 33/41/122
f 21/46/123 31/47/124 32/42/125 22/26/126
f 23/22/127 36/39/128 31/47/129 21/46/130
f 30/45/131 35/40/132 39/35/133 26/48/134
f 25/43/135 38/36/136 24/32/137 19/49/138
f 27/38/139 28/37/140 29/24/141
f 32/42/142 33/41/143 34/28/144
f 35/40/145 36/39/146 37/30/147
f 38/36/148 39/35/149 40/34/150
s 7
f 42/51/39 41/50/38 16/23/151 4/4/152
s 2
f 2/2/153 43/54/6 42/52/5 4/4/154
s 8
f 57/71/155 47/55/46 55/69/45 58/70/156
s 1
f 59/72/157 48/56/2 47/55/1 57/71/158
s 4
f 60/73/159 51/57/14 48/56/13 59/72/160
s 5
f 54/67/20 51/57/19 60/73/161 61/74/162
s 3
f 45/60/11 44/58/10 1/1/163 3/3/164
s 6
f 3/3/165 14/33/166 46/62/26 45/61/25
s off
f 10/17/167 18/25/168 50/64/169 49/63/170
f 12/19/171 10/17/172 49/63/173 52/65/174
f 7/7/175 12/19/176 52/65/177 53/66/178
f 44/59/179 7/7/180 53/66/181 54/67/182
f 18/25/183 8/8/184 56/68/185 50/64/186
f 8/8/187 43/53/188 55/69/189 56/68/190
f 43/53/191 2/10/192 58/70/193 55/69/194
f 2/10/195 15/21/196 57/71/197 58/70/198
f 15/21/199 9/16/200 59/72/201 57/71/202
f 9/16/203 11/18/204 60/73/205 59/72/206
f 11/18/207 1/9/208 61/74/209 60/73/210
f 1/9/211 44/59/212 54/67/213 61/74/214
